<?xml version="1.0" encoding="utf-8"?>
<!-- Generator: Adobe Illustrator 23.0.1, SVG Export Plug-In . SVG Version: 6.00 Build 0)  -->
<svg version="1.1" id="Layer_1" xmlns="http://www.w3.org/2000/svg" xmlns:xlink="http://www.w3.org/1999/xlink" x="0px" y="0px"
	 viewBox="0 0 595.3 397.3" style="enable-background:new 0 0 595.3 397.3;" xml:space="preserve">
<style type="text/css">
	.st0{clip-path:url(#SVGID_2_);}
	.st1{clip-path:url(#SVGID_4_);fill:#C7C8CA;}
	.st2{clip-path:url(#SVGID_6_);fill:#C7C8CA;}
	.st3{clip-path:url(#SVGID_8_);fill:#C7C8CA;}
	.st4{clip-path:url(#SVGID_10_);fill:#C7C8CA;}
	.st5{clip-path:url(#SVGID_12_);fill:#C7C8CA;}
	.st6{clip-path:url(#SVGID_14_);fill:#C7C8CA;}
	.st7{clip-path:url(#SVGID_16_);fill:#C7C8CA;}
	.st8{clip-path:url(#SVGID_18_);fill:#C7C8CA;}
	.st9{clip-path:url(#SVGID_20_);fill:#C7C8CA;}
	.st10{clip-path:url(#SVGID_22_);fill:#C7C8CA;}
	.st11{clip-path:url(#SVGID_24_);fill:#C7C8CA;}
	.st12{clip-path:url(#SVGID_26_);fill:#C7C8CA;}
	.st13{clip-path:url(#SVGID_28_);fill:#C7C8CA;}
	.st14{clip-path:url(#SVGID_30_);fill:#C7C8CA;}
	.st15{clip-path:url(#SVGID_32_);fill:#C7C8CA;}
	.st16{clip-path:url(#SVGID_34_);fill:#C7C8CA;}
	.st17{clip-path:url(#SVGID_36_);fill:#C7C8CA;}
	.st18{clip-path:url(#SVGID_38_);fill:#C7C8CA;}
	.st19{clip-path:url(#SVGID_40_);fill:#C7C8CA;}
	.st20{clip-path:url(#SVGID_42_);fill:#C7C8CA;}
	.st21{clip-path:url(#SVGID_44_);fill:#C7C8CA;}
	.st22{clip-path:url(#SVGID_46_);fill:#C7C8CA;}
	.st23{clip-path:url(#SVGID_48_);fill:#C7C8CA;}
	.st24{clip-path:url(#SVGID_50_);fill:#C7C8CA;}
	.st25{clip-path:url(#SVGID_52_);fill:#C7C8CA;}
	.st26{clip-path:url(#SVGID_54_);fill:#C7C8CA;}
	.st27{clip-path:url(#SVGID_56_);fill:#C7C8CA;}
	.st28{clip-path:url(#SVGID_58_);fill:#C7C8CA;}
	.st29{clip-path:url(#SVGID_60_);fill:#C7C8CA;}
	.st30{clip-path:url(#SVGID_62_);fill:#C7C8CA;}
	.st31{clip-path:url(#SVGID_64_);fill:#C7C8CA;}
	.st32{clip-path:url(#SVGID_66_);fill:#C7C8CA;}
	.st33{clip-path:url(#SVGID_68_);}
	.st34{clip-path:url(#SVGID_70_);fill:#C7C8CA;}
	.st35{clip-path:url(#SVGID_72_);fill:#C7C8CA;}
	.st36{clip-path:url(#SVGID_74_);fill:#C7C8CA;}
	.st37{clip-path:url(#SVGID_76_);fill:#C7C8CA;}
	.st38{clip-path:url(#SVGID_78_);fill:#C7C8CA;}
	.st39{clip-path:url(#SVGID_80_);fill:#C7C8CA;}
	.st40{clip-path:url(#SVGID_82_);fill:#C7C8CA;}
	.st41{clip-path:url(#SVGID_84_);fill:#C7C8CA;}
	.st42{clip-path:url(#SVGID_86_);fill:#C7C8CA;}
	.st43{clip-path:url(#SVGID_88_);fill:#C7C8CA;}
	.st44{clip-path:url(#SVGID_90_);fill:#C7C8CA;}
	.st45{clip-path:url(#SVGID_92_);fill:#C7C8CA;}
	.st46{clip-path:url(#SVGID_94_);fill:#C7C8CA;}
	.st47{clip-path:url(#SVGID_96_);fill:#C7C8CA;}
	.st48{clip-path:url(#SVGID_98_);fill:#C7C8CA;}
	.st49{clip-path:url(#SVGID_100_);fill:#C7C8CA;}
	.st50{clip-path:url(#SVGID_102_);fill:#C7C8CA;}
	.st51{clip-path:url(#SVGID_104_);fill:#C7C8CA;}
	.st52{clip-path:url(#SVGID_106_);fill:#C7C8CA;}
	.st53{clip-path:url(#SVGID_108_);fill:#C7C8CA;}
	.st54{clip-path:url(#SVGID_110_);fill:#C7C8CA;}
	.st55{clip-path:url(#SVGID_112_);fill:#C7C8CA;}
	.st56{clip-path:url(#SVGID_114_);fill:#C7C8CA;}
	.st57{clip-path:url(#SVGID_116_);fill:#C7C8CA;}
	.st58{clip-path:url(#SVGID_118_);fill:#C7C8CA;}
	.st59{clip-path:url(#SVGID_120_);fill:#C7C8CA;}
	.st60{clip-path:url(#SVGID_122_);fill:#C7C8CA;}
	.st61{clip-path:url(#SVGID_124_);fill:#C7C8CA;}
	.st62{clip-path:url(#SVGID_126_);fill:#C7C8CA;}
	.st63{clip-path:url(#SVGID_128_);fill:#C7C8CA;}
	.st64{clip-path:url(#SVGID_130_);fill:#C7C8CA;}
	.st65{clip-path:url(#SVGID_132_);fill:#C7C8CA;}
</style>
<g>
	<defs>
		<rect id="SVGID_1_" x="1.1" y="9.3" width="588.9" height="383.4"/>
	</defs>
	<clipPath id="SVGID_2_">
		<use xlink:href="#SVGID_1_"  style="overflow:visible;"/>
	</clipPath>
	<g class="st0">
		<g>
			<defs>
				<rect id="SVGID_3_" x="-19.7" y="-12.4" width="630.2" height="232.9"/>
			</defs>
			<clipPath id="SVGID_4_">
				<use xlink:href="#SVGID_3_"  style="overflow:visible;"/>
			</clipPath>
			<path class="st1" d="M285.9,54.4l-0.5-0.1c-1.3-0.2-2.6,0.7-2.8,2l-0.1,0.5c-0.2,1.3,0.7,2.6,2,2.8l0.5,0.1
				c1.3,0.2,2.6-0.7,2.8-2l0.1-0.5C288.1,55.9,287.3,54.7,285.9,54.4"/>
		</g>
	</g>
	<g class="st0">
		<g>
			<defs>
				<rect id="SVGID_5_" x="-19.7" y="-12.4" width="630.2" height="232.9"/>
			</defs>
			<clipPath id="SVGID_6_">
				<use xlink:href="#SVGID_5_"  style="overflow:visible;"/>
			</clipPath>
			<path class="st2" d="M293.5,117.8l-0.5-0.1c-1.3-0.2-2.6,0.7-2.8,2l-0.1,0.6c-0.2,1.3,0.7,2.6,2,2.8l0.5,0.1
				c1.3,0.2,2.6-0.7,2.8-2l0.1-0.6C295.7,119.3,294.8,118,293.5,117.8"/>
		</g>
	</g>
	<g class="st0">
		<g>
			<defs>
				<rect id="SVGID_7_" x="-19.7" y="-12.4" width="630.2" height="232.9"/>
			</defs>
			<clipPath id="SVGID_8_">
				<use xlink:href="#SVGID_7_"  style="overflow:visible;"/>
			</clipPath>
			<path class="st3" d="M232.1,142.7l-0.6-0.1c-1.3-0.2-2.6,0.7-2.8,2l-0.1,0.6c-0.2,1.3,0.7,2.6,2,2.8l0.6,0.1
				c1.3,0.2,2.6-0.7,2.8-2l0.1-0.6C234.3,144.2,233.4,143,232.1,142.7"/>
		</g>
	</g>
	<g class="st0">
		<g>
			<defs>
				<rect id="SVGID_9_" x="-19.7" y="-12.4" width="630.2" height="232.9"/>
			</defs>
			<clipPath id="SVGID_10_">
				<use xlink:href="#SVGID_9_"  style="overflow:visible;"/>
			</clipPath>
			<path class="st4" d="M222.4,69.2l-0.6-0.1c-1.3-0.2-2.6,0.7-2.8,2l-0.1,0.6c-0.2,1.3,0.7,2.6,2,2.8l0.6,0.1
				c1.3,0.2,2.6-0.7,2.8-2l0.1-0.6C224.6,70.7,223.8,69.4,222.4,69.2"/>
		</g>
	</g>
	<g class="st0">
		<g>
			<defs>
				<rect id="SVGID_11_" x="-19.7" y="-12.4" width="630.2" height="232.9"/>
			</defs>
			<clipPath id="SVGID_12_">
				<use xlink:href="#SVGID_11_"  style="overflow:visible;"/>
			</clipPath>
			<path class="st5" d="M190.8,147.6l-0.6-0.1c-1.3-0.2-2.6,0.7-2.8,2l-0.1,0.6c-0.2,1.3,0.7,2.6,2,2.8l0.6,0.1
				c1.3,0.2,2.6-0.7,2.8-2l0.1-0.6C193,149,192.1,147.8,190.8,147.6"/>
		</g>
	</g>
	<g class="st0">
		<g>
			<defs>
				<rect id="SVGID_13_" x="-19.7" y="-12.4" width="630.2" height="232.9"/>
			</defs>
			<clipPath id="SVGID_14_">
				<use xlink:href="#SVGID_13_"  style="overflow:visible;"/>
			</clipPath>
			<path class="st6" d="M126.1,123.7l-0.6-0.1c-1.3-0.2-2.6,0.7-2.8,2l-0.1,0.6c-0.2,1.3,0.7,2.6,2,2.8l0.6,0.1
				c1.3,0.2,2.6-0.7,2.8-2l0.1-0.6C128.3,125.2,127.4,123.9,126.1,123.7"/>
		</g>
	</g>
	<g class="st0">
		<g>
			<defs>
				<rect id="SVGID_15_" x="-19.7" y="-12.4" width="630.2" height="232.9"/>
			</defs>
			<clipPath id="SVGID_16_">
				<use xlink:href="#SVGID_15_"  style="overflow:visible;"/>
			</clipPath>
			<path class="st7" d="M78,118.8l-0.6-0.1c-1.3-0.2-2.6,0.7-2.8,2l-0.1,0.6c-0.2,1.3,0.7,2.6,2,2.8l0.6,0.1c1.3,0.2,2.6-0.7,2.8-2
				l0.1-0.6C80.3,120.2,79.3,119,78,118.8"/>
		</g>
	</g>
	<g class="st0">
		<g>
			<defs>
				<rect id="SVGID_17_" x="-19.7" y="-12.4" width="630.2" height="232.9"/>
			</defs>
			<clipPath id="SVGID_18_">
				<use xlink:href="#SVGID_17_"  style="overflow:visible;"/>
			</clipPath>
			<path class="st8" d="M14.9,92.7l-0.6-0.1c-1.3-0.2-2.6,0.7-2.8,2l-0.1,0.6c-0.2,1.3,0.7,2.6,2,2.8H14c1.3,0.2,2.6-0.7,2.8-2
				l0.1-0.6C17.1,94.2,16.2,92.9,14.9,92.7"/>
		</g>
	</g>
	<g class="st0">
		<g>
			<defs>
				<rect id="SVGID_19_" x="-19.7" y="-12.4" width="630.2" height="232.9"/>
			</defs>
			<clipPath id="SVGID_20_">
				<use xlink:href="#SVGID_19_"  style="overflow:visible;"/>
			</clipPath>
			<path class="st9" d="M150.6,52.8l-0.6-0.1c-1.3-0.2-2.6,0.7-2.8,2l-0.1,0.5c-0.2,1.3,0.7,2.6,2,2.8l0.6,0.1
				c1.3,0.2,2.6-0.7,2.8-2l0.1-0.5C152.8,54.3,151.9,53.1,150.6,52.8"/>
		</g>
	</g>
	<g class="st0">
		<g>
			<defs>
				<rect id="SVGID_21_" x="-19.7" y="-12.4" width="630.2" height="232.9"/>
			</defs>
			<clipPath id="SVGID_22_">
				<use xlink:href="#SVGID_21_"  style="overflow:visible;"/>
			</clipPath>
			<path class="st10" d="M107.3,71.9l-0.6-0.1c-1.3-0.2-2.6,0.7-2.8,2l-0.1,0.6c-0.2,1.3,0.7,2.6,2,2.8l0.6,0.1
				c1.3,0.2,2.6-0.7,2.8-2l0.1-0.6C109.5,73.4,108.6,72.1,107.3,71.9"/>
		</g>
	</g>
	<g class="st0">
		<g>
			<defs>
				<rect id="SVGID_23_" x="-19.7" y="-12.4" width="630.2" height="232.9"/>
			</defs>
			<clipPath id="SVGID_24_">
				<use xlink:href="#SVGID_23_"  style="overflow:visible;"/>
			</clipPath>
			<path class="st11" d="M94.4,14.5l-0.6-0.1c-1.3-0.2-2.6,0.7-2.8,2v0.5c-0.2,1.3,0.7,2.6,2,2.8l0.6,0.1c1.3,0.2,2.6-0.7,2.8-2
				l0.1-0.5C96.6,16,95.7,14.7,94.4,14.5"/>
		</g>
	</g>
	<g class="st0">
		<g>
			<defs>
				<rect id="SVGID_25_" x="-19.7" y="-12.4" width="630.2" height="232.9"/>
			</defs>
			<clipPath id="SVGID_26_">
				<use xlink:href="#SVGID_25_"  style="overflow:visible;"/>
			</clipPath>
			<path class="st12" d="M16.7,9.4l-0.5-0.1c-1.3-0.2-2.6,0.7-2.8,2l-0.1,0.6c-0.2,1.3,0.7,2.6,2,2.8l0.6,0.1c1.3,0.2,2.6-0.7,2.8-2
				l0.1-0.6C18.9,10.9,18,9.6,16.7,9.4"/>
		</g>
	</g>
	<g class="st0">
		<g>
			<defs>
				<rect id="SVGID_27_" x="-19.7" y="-12.4" width="630.2" height="232.9"/>
			</defs>
			<clipPath id="SVGID_28_">
				<use xlink:href="#SVGID_27_"  style="overflow:visible;"/>
			</clipPath>
			<path class="st13" d="M194.4,85.3l-0.6-0.1c-1.3-0.2-2.6,0.7-2.8,2l-0.1,0.6c-0.2,1.3,0.7,2.6,2,2.8l0.6,0.1
				c1.3,0.2,2.6-0.7,2.8-2l0.1-0.6C196.6,86.8,195.7,85.6,194.4,85.3"/>
		</g>
	</g>
	<g class="st0">
		<g>
			<defs>
				<rect id="SVGID_29_" x="-19.7" y="-12.4" width="630.2" height="232.9"/>
			</defs>
			<clipPath id="SVGID_30_">
				<use xlink:href="#SVGID_29_"  style="overflow:visible;"/>
			</clipPath>
			<path class="st14" d="M336.5,103.6l-0.5-0.1c-1.3-0.2-2.6,0.7-2.8,2l-0.1,0.6c-0.2,1.3,0.7,2.6,2,2.8l0.5,0.1
				c1.3,0.2,2.6-0.7,2.8-2l0.1-0.6C338.7,105.1,337.8,103.8,336.5,103.6"/>
		</g>
	</g>
	<g class="st0">
		<g>
			<defs>
				<rect id="SVGID_31_" x="-19.7" y="-12.4" width="630.2" height="232.9"/>
			</defs>
			<clipPath id="SVGID_32_">
				<use xlink:href="#SVGID_31_"  style="overflow:visible;"/>
			</clipPath>
			<path class="st15" d="M399.8,94l-0.5-0.1c-1.3-0.2-2.6,0.7-2.8,2l-0.1,0.6c-0.2,1.3,0.7,2.6,2,2.8l0.5,0.1c1.3,0.2,2.6-0.7,2.8-2
				l0.1-0.6C402,95.4,401.1,94.2,399.8,94"/>
		</g>
	</g>
	<g class="st0">
		<g>
			<defs>
				<rect id="SVGID_33_" x="-19.7" y="-12.4" width="630.2" height="232.9"/>
			</defs>
			<clipPath id="SVGID_34_">
				<use xlink:href="#SVGID_33_"  style="overflow:visible;"/>
			</clipPath>
			<path class="st16" d="M408.8,161.9l-0.5-0.1c-1.3-0.2-2.6,0.7-2.8,2l-0.1,0.6c-0.2,1.3,0.7,2.6,2,2.8l0.5,0.1
				c1.3,0.2,2.6-0.7,2.8-2l0.1-0.6C411,163.4,410.1,162.1,408.8,161.9"/>
		</g>
	</g>
	<g class="st0">
		<g>
			<defs>
				<rect id="SVGID_35_" x="-19.7" y="-12.4" width="630.2" height="232.9"/>
			</defs>
			<clipPath id="SVGID_36_">
				<use xlink:href="#SVGID_35_"  style="overflow:visible;"/>
			</clipPath>
			<path class="st17" d="M461.3,170.7l-0.5-0.1c-1.3-0.2-2.6,0.7-2.8,2l-0.1,0.6c-0.2,1.3,0.7,2.6,2,2.8l0.5,0.1
				c1.3,0.2,2.6-0.7,2.8-2l0.1-0.6C463.5,172.2,462.6,170.9,461.3,170.7"/>
		</g>
	</g>
	<g class="st0">
		<g>
			<defs>
				<rect id="SVGID_37_" x="-19.7" y="-12.4" width="630.2" height="232.9"/>
			</defs>
			<clipPath id="SVGID_38_">
				<use xlink:href="#SVGID_37_"  style="overflow:visible;"/>
			</clipPath>
			<path class="st18" d="M468.5,79.8l-0.5-0.1c-1.3-0.2-2.6,0.7-2.8,2l-0.1,0.6c-0.2,1.3,0.7,2.6,2,2.8l0.5,0.1
				c1.3,0.2,2.6-0.7,2.8-2l0.1-0.6C470.8,81.3,469.9,80.1,468.5,79.8"/>
		</g>
	</g>
	<g class="st0">
		<g>
			<defs>
				<rect id="SVGID_39_" x="-19.7" y="-12.4" width="630.2" height="232.9"/>
			</defs>
			<clipPath id="SVGID_40_">
				<use xlink:href="#SVGID_39_"  style="overflow:visible;"/>
			</clipPath>
			<path class="st19" d="M485.2,143.2l-0.5-0.1c-1.3-0.2-2.6,0.7-2.8,2l-0.1,0.6c-0.2,1.3,0.7,2.6,2,2.8l0.5,0.1
				c1.3,0.2,2.6-0.7,2.8-2l0.1-0.6C487.4,144.7,486.5,143.4,485.2,143.2"/>
		</g>
	</g>
	<g class="st0">
		<g>
			<defs>
				<rect id="SVGID_41_" x="-19.7" y="-12.4" width="630.2" height="232.9"/>
			</defs>
			<clipPath id="SVGID_42_">
				<use xlink:href="#SVGID_41_"  style="overflow:visible;"/>
			</clipPath>
			<path class="st20" d="M516.8,189.4l-0.5-0.1c-1.3-0.2-2.6,0.7-2.8,2l-0.1,0.6c-0.2,1.3,0.7,2.6,2,2.8l0.5,0.1
				c1.3,0.2,2.6-0.7,2.8-2l0.1-0.6C519,190.9,518.1,189.7,516.8,189.4"/>
		</g>
	</g>
	<g class="st0">
		<g>
			<defs>
				<rect id="SVGID_43_" x="-19.7" y="-12.4" width="630.2" height="232.9"/>
			</defs>
			<clipPath id="SVGID_44_">
				<use xlink:href="#SVGID_43_"  style="overflow:visible;"/>
			</clipPath>
			<path class="st21" d="M588,119.4l-0.5-0.1c-1.3-0.2-2.6,0.7-2.8,2l-0.1,0.6c-0.2,1.3,0.7,2.6,2,2.8l0.5,0.1
				c1.3,0.2,2.6-0.7,2.8-2l0.1-0.6C590.2,120.9,589.3,119.6,588,119.4"/>
		</g>
	</g>
	<g class="st0">
		<g>
			<defs>
				<rect id="SVGID_45_" x="-19.7" y="-12.4" width="630.2" height="232.9"/>
			</defs>
			<clipPath id="SVGID_46_">
				<use xlink:href="#SVGID_45_"  style="overflow:visible;"/>
			</clipPath>
			<path class="st22" d="M576.6,187.2l-0.5-0.1c-1.3-0.2-2.6,0.7-2.8,2l-0.1,0.6c-0.2,1.3,0.7,2.6,2,2.8l0.5,0.1
				c1.3,0.2,2.6-0.7,2.8-2l0.1-0.6C578.8,188.7,577.9,187.5,576.6,187.2"/>
		</g>
	</g>
	<g class="st0">
		<g>
			<defs>
				<rect id="SVGID_47_" x="-19.7" y="-12.4" width="630.2" height="232.9"/>
			</defs>
			<clipPath id="SVGID_48_">
				<use xlink:href="#SVGID_47_"  style="overflow:visible;"/>
			</clipPath>
			<path class="st23" d="M347.5,161.1L347,161c-1.3-0.2-2.6,0.7-2.8,2l-0.1,0.6c-0.2,1.3,0.7,2.6,2,2.8l0.5,0.1
				c1.3,0.2,2.6-0.7,2.8-2l0.1-0.6C349.7,162.6,348.8,161.3,347.5,161.1"/>
		</g>
	</g>
	<g class="st0">
		<g>
			<defs>
				<rect id="SVGID_49_" x="-19.7" y="-12.4" width="630.2" height="232.9"/>
			</defs>
			<clipPath id="SVGID_50_">
				<use xlink:href="#SVGID_49_"  style="overflow:visible;"/>
			</clipPath>
			<polygon class="st24" points="125.5,126.3 125.2,126.3 149.8,55.4 150,55.5 			"/>
		</g>
	</g>
	<g class="st0">
		<g>
			<defs>
				<rect id="SVGID_51_" x="-19.7" y="-12.4" width="630.2" height="232.9"/>
			</defs>
			<clipPath id="SVGID_52_">
				<use xlink:href="#SVGID_51_"  style="overflow:visible;"/>
			</clipPath>
			<polygon class="st25" points="190.2,150.2 189.9,150.1 221.4,72.2 193.6,88.1 193.6,88.1 149.9,55.6 106.6,74.7 106.5,74.4 
				149.9,55.3 193.7,87.8 222,71.5 221.8,71.9 			"/>
		</g>
	</g>
	<g class="st0">
		<g>
			<defs>
				<rect id="SVGID_53_" x="-19.7" y="-12.4" width="630.2" height="232.9"/>
			</defs>
			<clipPath id="SVGID_54_">
				<use xlink:href="#SVGID_53_"  style="overflow:visible;"/>
			</clipPath>
			<path class="st26" d="M285.4,57.4l7.5,62.8l42.6-14L285.4,57.4z M293.1,120.4l53.5,42.9l-10.9-57L293.1,120.4z M335.9,106.4
				l11,57.2l61.1,0.8l-9-67.6L335.9,106.4z M221.9,71.9l9.6,73L285,57.2L221.9,71.9z M285.1,57.5l-53.4,87.6l60.9-24.8L285.1,57.5z
				 M292.8,120.6l-60.9,24.8l114.4,18.2L292.8,120.6z M193.8,87.7V88l-3.6,62.1l41-4.8L221.6,72l-71.8-16.4L93.9,17.4l12.8,57.1
				l18.7,51.6L193.8,87.7z M189.9,150.3v-0.2l3.6-62l-68.2,38.3l-0.1-0.2l-18.8-51.8l-13-57.8l0.3,0.2l56.2,38.3l71.8,16.4
				l63.4-14.8l0.1-0.1l0.1,0.1h0.1v0.1l50.4,49.1l63.4-9.7v0.1l9.1,68.1h-0.2l-61.2-0.8l0,0h-0.2l0,0l-115.3-18.4l-0.4,0.1l0.1-0.1
				L189.9,150.3z"/>
		</g>
	</g>
	<g class="st0">
		<g>
			<defs>
				<rect id="SVGID_55_" x="-19.7" y="-12.4" width="630.2" height="232.9"/>
			</defs>
			<clipPath id="SVGID_56_">
				<use xlink:href="#SVGID_55_"  style="overflow:visible;"/>
			</clipPath>
			<path class="st27" d="M286.6,57.4l112.5,39.1l68-14L286.6,57.4z M346.9,163.8l-0.2-0.2l52.2-67L285.2,57.2l0.1-0.3l183.4,25.5
				l-0.8,0.2l-68.6,14.1l61.6,76.8l-52.8-8.8v-0.3l52.1,8.7L399,96.8L346.9,163.8z"/>
		</g>
	</g>
	<g class="st0">
		<g>
			<defs>
				<rect id="SVGID_57_" x="-19.7" y="-12.4" width="630.2" height="232.9"/>
			</defs>
			<clipPath id="SVGID_58_">
				<use xlink:href="#SVGID_57_"  style="overflow:visible;"/>
			</clipPath>
			<path class="st28" d="M16.1,12.2l-1.9,83.4l79.1-78.3L16.1,12.2z M14.5,95.9l62.8,25l29-46.1L14.5,95.9z M77.4,121.2L77.4,121.2
				L14.1,96l-0.4,0.1l0.3-0.3l1.9-83.9H16L94,17l-0.2,0.2L14.5,95.6l92.4-21.3l-0.2,0.3L77.4,121.2z"/>
		</g>
	</g>
	<g class="st0">
		<g>
			<defs>
				<rect id="SVGID_59_" x="-19.7" y="-12.4" width="630.2" height="232.9"/>
			</defs>
			<clipPath id="SVGID_60_">
				<use xlink:href="#SVGID_59_"  style="overflow:visible;"/>
			</clipPath>
			<polygon class="st29" points="190,150.3 125.3,126.4 77.4,121.2 77.4,120.9 125.4,126.2 190.1,150.1 			"/>
		</g>
	</g>
	<g class="st0">
		<g>
			<defs>
				<rect id="SVGID_61_" x="-19.7" y="-12.4" width="630.2" height="232.9"/>
			</defs>
			<clipPath id="SVGID_62_">
				<use xlink:href="#SVGID_61_"  style="overflow:visible;"/>
			</clipPath>
			<path class="st30" d="M467.9,83.3l-7.2,89.6l23.4-26.1L467.9,83.3z M460.4,173.7v-0.4l7.3-91.7l0.2,0.8l16.5,64.4v0.1
				L460.4,173.7z"/>
		</g>
	</g>
	<g class="st0">
		<g>
			<defs>
				<rect id="SVGID_63_" x="-19.7" y="-12.4" width="630.2" height="232.9"/>
			</defs>
			<clipPath id="SVGID_64_">
				<use xlink:href="#SVGID_63_"  style="overflow:visible;"/>
			</clipPath>
			<polygon class="st31" points="516.4,192.3 516,192.2 460.5,173.4 460.6,173.2 515.7,191.8 484.1,146.7 484.3,146.7 586.7,122 
				467.8,82.6 467.9,82.3 587.7,122.1 587.3,122.2 484.5,146.9 			"/>
		</g>
	</g>
	<g class="st0">
		<g>
			<defs>
				<rect id="SVGID_65_" x="-19.7" y="-12.4" width="630.2" height="232.9"/>
			</defs>
			<clipPath id="SVGID_66_">
				<use xlink:href="#SVGID_65_"  style="overflow:visible;"/>
			</clipPath>
			<path class="st32" d="M587,122.4l-70.6,69.5l59.3-2.2L587,122.4z M515.7,192.2l0.3-0.3l71.4-70.3L576,190h-0.1L515.7,192.2z"/>
		</g>
	</g>
</g>
<g>
	<defs>
		<rect id="SVGID_67_" x="1.1" y="9.3" width="588.9" height="383.4"/>
	</defs>
	<clipPath id="SVGID_68_">
		<use xlink:href="#SVGID_67_"  style="overflow:visible;"/>
	</clipPath>
	<g class="st33">
		<defs>
			<rect id="SVGID_69_" x="-13.8" y="260.5" width="616.7" height="133"/>
		</defs>
		<clipPath id="SVGID_70_">
			<use xlink:href="#SVGID_69_"  style="overflow:visible;"/>
		</clipPath>
		<path class="st34" d="M277,279.7h-0.6c-1.3,0-2.4,1.1-2.4,2.4v0.6c0,1.3,1.1,2.4,2.4,2.4h0.6c1.3,0,2.4-1.1,2.4-2.4v-0.6
			C279.4,280.8,278.4,279.7,277,279.7"/>
	</g>
	<g class="st33">
		<defs>
			<rect id="SVGID_71_" x="-13.8" y="260.5" width="616.7" height="133"/>
		</defs>
		<clipPath id="SVGID_72_">
			<use xlink:href="#SVGID_71_"  style="overflow:visible;"/>
		</clipPath>
		<path class="st35" d="M294.9,340.9h-0.6c-1.3,0-2.4,1.1-2.4,2.4v0.6c0,1.3,1.1,2.4,2.4,2.4h0.6c1.3,0,2.4-1.1,2.4-2.4v-0.6
			C297.4,342,296.3,340.9,294.9,340.9"/>
	</g>
	<g class="st33">
		<defs>
			<rect id="SVGID_73_" x="-13.8" y="260.5" width="616.7" height="133"/>
		</defs>
		<clipPath id="SVGID_74_">
			<use xlink:href="#SVGID_73_"  style="overflow:visible;"/>
		</clipPath>
		<path class="st36" d="M238.5,375.7h-0.6c-1.3,0-2.4,1.1-2.4,2.4v0.6c0,1.3,1.1,2.4,2.4,2.4h0.6c1.3,0,2.4-1.1,2.4-2.4v-0.6
			C240.9,376.8,239.8,375.7,238.5,375.7"/>
	</g>
	<g class="st33">
		<defs>
			<rect id="SVGID_75_" x="-13.8" y="260.5" width="616.7" height="133"/>
		</defs>
		<clipPath id="SVGID_76_">
			<use xlink:href="#SVGID_75_"  style="overflow:visible;"/>
		</clipPath>
		<path class="st37" d="M216.8,304.8h-0.6c-1.3,0-2.4,1.1-2.4,2.4v0.6c0,1.3,1.1,2.4,2.4,2.4h0.6c1.3,0,2.4-1.1,2.4-2.4v-0.6
			C219.3,305.8,218.2,304.8,216.8,304.8"/>
	</g>
	<g class="st33">
		<defs>
			<rect id="SVGID_77_" x="-13.8" y="260.5" width="616.7" height="133"/>
		</defs>
		<clipPath id="SVGID_78_">
			<use xlink:href="#SVGID_77_"  style="overflow:visible;"/>
		</clipPath>
		<path class="st38" d="M198.5,387.2H198c-1.3,0-2.4,1.1-2.4,2.4v0.6c0,1.3,1.1,2.4,2.4,2.4h0.6c1.3,0,2.4-1.1,2.4-2.4v-0.6
			C201,388.3,199.9,387.2,198.5,387.2"/>
	</g>
	<g class="st33">
		<defs>
			<rect id="SVGID_79_" x="-13.8" y="260.5" width="616.7" height="133"/>
		</defs>
		<clipPath id="SVGID_80_">
			<use xlink:href="#SVGID_79_"  style="overflow:visible;"/>
		</clipPath>
		<path class="st39" d="M130.8,374.4h-0.6c-1.3,0-2.4,1.1-2.4,2.4v0.6c0,1.3,1.1,2.4,2.4,2.4h0.6c1.3,0,2.4-1.1,2.4-2.4v-0.6
			C133.2,375.5,132.1,374.4,130.8,374.4"/>
	</g>
	<g class="st33">
		<defs>
			<rect id="SVGID_81_" x="-13.8" y="260.5" width="616.7" height="133"/>
		</defs>
		<clipPath id="SVGID_82_">
			<use xlink:href="#SVGID_81_"  style="overflow:visible;"/>
		</clipPath>
		<path class="st40" d="M82.6,377.4H82c-1.3,0-2.4,1.1-2.4,2.4v0.6c0,1.3,1.1,2.4,2.4,2.4h0.6c1.3,0,2.4-1.1,2.4-2.4v-0.6
			C85,378.5,83.9,377.4,82.6,377.4"/>
	</g>
	<g class="st33">
		<defs>
			<rect id="SVGID_83_" x="-13.8" y="260.5" width="616.7" height="133"/>
		</defs>
		<clipPath id="SVGID_84_">
			<use xlink:href="#SVGID_83_"  style="overflow:visible;"/>
		</clipPath>
		<path class="st41" d="M16,362.1h-0.6c-1.3,0-2.4,1.1-2.4,2.4v0.6c0,1.3,1.1,2.4,2.4,2.4H16c1.3,0,2.4-1.1,2.4-2.4v-0.6
			C18.4,363.2,17.3,362.1,16,362.1"/>
	</g>
	<g class="st33">
		<defs>
			<rect id="SVGID_85_" x="-13.8" y="260.5" width="616.7" height="133"/>
		</defs>
		<clipPath id="SVGID_86_">
			<use xlink:href="#SVGID_85_"  style="overflow:visible;"/>
		</clipPath>
		<path class="st42" d="M143.3,300.5h-0.6c-1.3,0-2.4,1.1-2.4,2.4v0.6c0,1.3,1.1,2.4,2.4,2.4h0.6c1.3,0,2.4-1.1,2.4-2.4v-0.6
			C145.7,301.5,144.6,300.5,143.3,300.5"/>
	</g>
	<g class="st33">
		<defs>
			<rect id="SVGID_87_" x="-13.8" y="260.5" width="616.7" height="133"/>
		</defs>
		<clipPath id="SVGID_88_">
			<use xlink:href="#SVGID_87_"  style="overflow:visible;"/>
		</clipPath>
		<path class="st43" d="M103.7,326.4h-0.6c-1.3,0-2.4,1.1-2.4,2.4v0.6c0,1.3,1.1,2.4,2.4,2.4h0.6c1.3,0,2.4-1.1,2.4-2.4v-0.6
			C106.1,327.5,105.1,326.4,103.7,326.4"/>
	</g>
	<g class="st33">
		<defs>
			<rect id="SVGID_89_" x="-13.8" y="260.5" width="616.7" height="133"/>
		</defs>
		<clipPath id="SVGID_90_">
			<use xlink:href="#SVGID_89_"  style="overflow:visible;"/>
		</clipPath>
		<path class="st44" d="M81.5,271.9H81c-1.3,0-2.4,1.1-2.4,2.4v0.6c0,1.3,1.1,2.4,2.4,2.4h0.6c1.3,0,2.4-1.1,2.4-2.4v-0.6
			C83.9,273,82.8,271.9,81.5,271.9"/>
	</g>
	<g class="st33">
		<defs>
			<rect id="SVGID_91_" x="-13.8" y="260.5" width="616.7" height="133"/>
		</defs>
		<clipPath id="SVGID_92_">
			<use xlink:href="#SVGID_91_"  style="overflow:visible;"/>
		</clipPath>
		<path class="st45" d="M4.1,279.7H3.5c-1.3,0-2.4,1.1-2.4,2.4v0.6c0,1.3,1.1,2.4,2.4,2.4h0.6c1.3,0,2.4-1.1,2.4-2.4v-0.6
			C6.5,280.8,5.4,279.7,4.1,279.7"/>
	</g>
	<g class="st33">
		<defs>
			<rect id="SVGID_93_" x="-13.8" y="260.5" width="616.7" height="133"/>
		</defs>
		<clipPath id="SVGID_94_">
			<use xlink:href="#SVGID_93_"  style="overflow:visible;"/>
		</clipPath>
		<path class="st46" d="M191.8,325.3h-0.6c-1.3,0-2.4,1.1-2.4,2.4v0.6c0,1.3,1.1,2.4,2.4,2.4h0.6c1.3,0,2.4-1.1,2.4-2.4v-0.6
			C194.2,326.4,193.1,325.3,191.8,325.3"/>
	</g>
	<g class="st33">
		<defs>
			<rect id="SVGID_95_" x="-13.8" y="260.5" width="616.7" height="133"/>
		</defs>
		<clipPath id="SVGID_96_">
			<use xlink:href="#SVGID_95_"  style="overflow:visible;"/>
		</clipPath>
		<path class="st47" d="M335,319.9h-0.6c-1.3,0-2.4,1.1-2.4,2.4v0.6c0,1.3,1.1,2.4,2.4,2.4h0.6c1.3,0,2.4-1.1,2.4-2.4v-0.6
			C337.4,321,336.3,319.9,335,319.9"/>
	</g>
	<g class="st33">
		<defs>
			<rect id="SVGID_97_" x="-13.8" y="260.5" width="616.7" height="133"/>
		</defs>
		<clipPath id="SVGID_98_">
			<use xlink:href="#SVGID_97_"  style="overflow:visible;"/>
		</clipPath>
		<path class="st48" d="M395.8,299.9h-0.6c-1.3,0-2.4,1.1-2.4,2.4v0.6c0,1.3,1.1,2.4,2.4,2.4h0.6c1.3,0,2.4-1.1,2.4-2.4v-0.6
			C398.2,301,397.1,299.9,395.8,299.9"/>
	</g>
	<g class="st33">
		<defs>
			<rect id="SVGID_99_" x="-13.8" y="260.5" width="616.7" height="133"/>
		</defs>
		<clipPath id="SVGID_100_">
			<use xlink:href="#SVGID_99_"  style="overflow:visible;"/>
		</clipPath>
		<path class="st49" d="M416,365.4h-0.6c-1.3,0-2.4,1.1-2.4,2.4v0.6c0,1.3,1.1,2.4,2.4,2.4h0.6c1.3,0,2.4-1.1,2.4-2.4v-0.6
			C418.4,366.5,417.3,365.4,416,365.4"/>
	</g>
	<g class="st33">
		<defs>
			<rect id="SVGID_101_" x="-13.8" y="260.5" width="616.7" height="133"/>
		</defs>
		<clipPath id="SVGID_102_">
			<use xlink:href="#SVGID_101_"  style="overflow:visible;"/>
		</clipPath>
		<path class="st50" d="M469.1,365.4h-0.6c-1.3,0-2.4,1.1-2.4,2.4v0.6c0,1.3,1.1,2.4,2.4,2.4h0.6c1.3,0,2.4-1.1,2.4-2.4v-0.6
			C471.6,366.5,470.5,365.4,469.1,365.4"/>
	</g>
	<g class="st33">
		<defs>
			<rect id="SVGID_103_" x="-13.8" y="260.5" width="616.7" height="133"/>
		</defs>
		<clipPath id="SVGID_104_">
			<use xlink:href="#SVGID_103_"  style="overflow:visible;"/>
		</clipPath>
		<path class="st51" d="M461.3,274.6h-0.6c-1.3,0-2.4,1.1-2.4,2.4v0.6c0,1.3,1.1,2.4,2.4,2.4h0.6c1.3,0,2.4-1.1,2.4-2.4V277
			C463.7,275.7,462.6,274.6,461.3,274.6"/>
	</g>
	<g class="st33">
		<defs>
			<rect id="SVGID_105_" x="-13.8" y="260.5" width="616.7" height="133"/>
		</defs>
		<clipPath id="SVGID_106_">
			<use xlink:href="#SVGID_105_"  style="overflow:visible;"/>
		</clipPath>
		<path class="st52" d="M488.2,334.3h-0.6c-1.3,0-2.4,1.1-2.4,2.4v0.6c0,1.3,1.1,2.4,2.4,2.4h0.6c1.3,0,2.4-1.1,2.4-2.4v-0.6
			C490.6,335.4,489.5,334.3,488.2,334.3"/>
	</g>
	<g class="st33">
		<defs>
			<rect id="SVGID_107_" x="-13.8" y="260.5" width="616.7" height="133"/>
		</defs>
		<clipPath id="SVGID_108_">
			<use xlink:href="#SVGID_107_"  style="overflow:visible;"/>
		</clipPath>
		<path class="st53" d="M527,374.7h-0.6c-1.3,0-2.4,1.1-2.4,2.4v0.6c0,1.3,1.1,2.4,2.4,2.4h0.6c1.3,0,2.4-1.1,2.4-2.4v-0.6
			C529.4,375.8,528.3,374.7,527,374.7"/>
	</g>
	<g class="st33">
		<defs>
			<rect id="SVGID_109_" x="-13.8" y="260.5" width="616.7" height="133"/>
		</defs>
		<clipPath id="SVGID_110_">
			<use xlink:href="#SVGID_109_"  style="overflow:visible;"/>
		</clipPath>
		<path class="st54" d="M585.6,293.9H585c-1.3,0-2.4,1.1-2.4,2.4v0.6c0,1.3,1.1,2.4,2.4,2.4h0.6c1.3,0,2.4-1.1,2.4-2.4v-0.6
			C588,295,587,293.9,585.6,293.9"/>
	</g>
	<g class="st33">
		<defs>
			<rect id="SVGID_111_" x="-13.8" y="260.5" width="616.7" height="133"/>
		</defs>
		<clipPath id="SVGID_112_">
			<use xlink:href="#SVGID_111_"  style="overflow:visible;"/>
		</clipPath>
		<path class="st55" d="M585.6,362.7H585c-1.3,0-2.4,1.1-2.4,2.4v0.6c0,1.3,1.1,2.4,2.4,2.4h0.6c1.3,0,2.4-1.1,2.4-2.4v-0.6
			C588,363.8,587,362.7,585.6,362.7"/>
	</g>
	<g class="st33">
		<defs>
			<rect id="SVGID_113_" x="-13.8" y="260.5" width="616.7" height="133"/>
		</defs>
		<clipPath id="SVGID_114_">
			<use xlink:href="#SVGID_113_"  style="overflow:visible;"/>
		</clipPath>
		<path class="st56" d="M355.3,374.7h-0.6c-1.3,0-2.4,1.1-2.4,2.4v0.6c0,1.3,1.1,2.4,2.4,2.4h0.6c1.3,0,2.4-1.1,2.4-2.4v-0.6
			C357.7,375.8,356.6,374.7,355.3,374.7"/>
	</g>
	<g class="st33">
		<defs>
			<rect id="SVGID_115_" x="-13.8" y="260.5" width="616.7" height="133"/>
		</defs>
		<clipPath id="SVGID_116_">
			<use xlink:href="#SVGID_115_"  style="overflow:visible;"/>
		</clipPath>
		<polygon class="st57" points="130.6,377.1 130.4,377 142.9,303.1 143.1,303.2 		"/>
	</g>
	<g class="st33">
		<defs>
			<rect id="SVGID_117_" x="-13.8" y="260.5" width="616.7" height="133"/>
		</defs>
		<clipPath id="SVGID_118_">
			<use xlink:href="#SVGID_117_"  style="overflow:visible;"/>
		</clipPath>
		<polygon class="st58" points="198.4,390 198.1,389.9 216.3,307.8 191.6,328.1 191.5,328.1 143,303.3 103.5,329.2 103.4,329 
			143,303 191.5,327.8 216.8,307.1 216.7,307.5 		"/>
	</g>
	<g class="st33">
		<defs>
			<rect id="SVGID_119_" x="-13.8" y="260.5" width="616.7" height="133"/>
		</defs>
		<clipPath id="SVGID_120_">
			<use xlink:href="#SVGID_119_"  style="overflow:visible;"/>
		</clipPath>
		<path class="st59" d="M277,282.7l17.8,60.7l39.7-20.9L277,282.7z M294.9,343.6l59.8,33.5l-20.2-54.4L294.9,343.6z M334.9,322.7
			l20.3,54.6l60.4-9.3l-20.1-65.2L334.9,322.7z M216.7,307.5l21.5,70.4l38.3-95.3L216.7,307.5z M276.7,282.8L238.5,378l56-34.5
			L276.7,282.8z M294.6,343.8l-56,34.5l115.8-0.9L294.6,343.8z M191.6,327.7v0.3l6.7,61.8l39.6-11.5l-21.6-70.7l-73.5-4.3
			l-61.5-28.4l22.1,54.2l27,47.8L191.6,327.7z M198.1,390.1v-0.2l-6.7-61.7l-61,49l-0.1-0.1l-27.1-48L81,274.3l0.3,0.1L143,303
			l73.5,4.3l60.1-25v-0.1l0.1,0.1h0.1v0.1l57.9,40.1l60.9-20v0.1l20.2,65.7h-0.2l-60.5,9.3l0,0h-0.2l0,0l-116.8,0.9l-0.3,0.2
			l0.1-0.1L198.1,390.1z"/>
	</g>
	<g class="st33">
		<defs>
			<rect id="SVGID_121_" x="-13.8" y="260.5" width="616.7" height="133"/>
		</defs>
		<clipPath id="SVGID_122_">
			<use xlink:href="#SVGID_121_"  style="overflow:visible;"/>
		</clipPath>
		<path class="st60" d="M278.1,282.5l117.4,20l64.7-25L278.1,282.5z M355.1,377.5l-0.2-0.1l40.4-74.7l-118.6-20.2v-0.3l185.1-5.1
			l-0.7,0.3l-65.3,25.2l73.5,65.6h-53.5V368h52.8l-73-65.1L355.1,377.5z"/>
	</g>
	<g class="st33">
		<defs>
			<rect id="SVGID_123_" x="-13.8" y="260.5" width="616.7" height="133"/>
		</defs>
		<clipPath id="SVGID_124_">
			<use xlink:href="#SVGID_123_"  style="overflow:visible;"/>
		</clipPath>
		<path class="st61" d="M3.9,282.5L15.8,365l65.1-90.3L3.9,282.5z M16.2,365.4l66,14.3l21-50.3L16.2,365.4z M82.4,379.9L82.4,379.9
			l-66.6-14.4l-0.4,0.2l0.3-0.4l-12.1-83h0.1l77.8-7.8l-0.2,0.3l-65.2,90.4l87.6-36.2l-0.1,0.3L82.4,379.9z"/>
	</g>
	<g class="st33">
		<defs>
			<rect id="SVGID_125_" x="-13.8" y="260.5" width="616.7" height="133"/>
		</defs>
		<clipPath id="SVGID_126_">
			<use xlink:href="#SVGID_125_"  style="overflow:visible;"/>
		</clipPath>
		<polygon class="st62" points="198.2,390.1 130.5,377.2 82.3,379.9 82.3,379.6 130.5,376.9 198.3,389.8 		"/>
	</g>
	<g class="st33">
		<defs>
			<rect id="SVGID_127_" x="-13.8" y="260.5" width="616.7" height="133"/>
		</defs>
		<clipPath id="SVGID_128_">
			<use xlink:href="#SVGID_127_"  style="overflow:visible;"/>
		</clipPath>
		<path class="st63" d="M461.2,278.1l7.7,89.6l18.8-29.6L461.2,278.1z M468.8,368.5v-0.4l-7.9-91.6l0.3,0.8l26.9,60.8v0.1
			L468.8,368.5z"/>
	</g>
	<g class="st33">
		<defs>
			<rect id="SVGID_129_" x="-13.8" y="260.5" width="616.7" height="133"/>
		</defs>
		<clipPath id="SVGID_130_">
			<use xlink:href="#SVGID_129_"  style="overflow:visible;"/>
		</clipPath>
		<polygon class="st64" points="527.1,377.6 526.7,377.6 468.9,368.2 468.9,368 526.3,377.2 487.7,338 487.9,337.9 584.8,296.7 
			461,277.5 461.1,277.2 585.8,296.6 585.4,296.8 488.1,338.1 		"/>
	</g>
	<g class="st33">
		<defs>
			<rect id="SVGID_131_" x="-13.8" y="260.5" width="616.7" height="133"/>
		</defs>
		<clipPath id="SVGID_132_">
			<use xlink:href="#SVGID_131_"  style="overflow:visible;"/>
		</clipPath>
		<path class="st65" d="M585.2,297L527,377.2l58.2-11.9V297z M526.4,377.6l0.2-0.3l58.8-81.2v69.3h-0.1L526.4,377.6z"/>
	</g>
</g>
</svg>
