<?xml version="1.0" encoding="utf-8"?>
<!-- Generator: Adobe Illustrator 23.0.1, SVG Export Plug-In . SVG Version: 6.00 Build 0)  -->
<svg version="1.1" id="Layer_1" xmlns="http://www.w3.org/2000/svg" xmlns:xlink="http://www.w3.org/1999/xlink" x="0px" y="0px"
	 viewBox="0 0 260 130.9" style="enable-background:new 0 0 260 130.9;" xml:space="preserve">
<style type="text/css">
	.st0{fill:#2F308A;}
	.st1{fill:#C1E3F4;}
</style>
<polygon class="st0" points="231.3,21.4 204.8,21.4 193.5,70.6 182.1,21.4 155.6,21.4 143.9,116.2 167.4,116.2 167.6,113.8 
	172.8,68.8 185,113.8 185.7,116.4 201.3,116.4 202,113.8 214.1,68.8 219.3,113.8 219.6,116.4 243,116.4 "/>
<path class="st0" d="M141.2,116.4h-27.6l-7.2-12.5l-4.3-7.4l-5.2-9v28.8H70.8V78.9H47v37.5H20.8v-95H47v36.2h23.8V21.4h43
	c12.8,4.1,22.1,16.1,22.1,30.3l0,0c0,2.9-0.4,5.7-1.1,8.3c-2.2,8.2-7.7,15.1-14.9,19.3L141.2,116.4z"/>
<polygon class="st1" points="108.3,6.4 108.3,55.1 94.6,55.1 100.6,21.4 100.8,20.1 102.5,10.7 103.3,6.4 "/>
<polygon class="st1" points="154.5,60 154.5,55 105.8,46.3 105.8,60 "/>
<polygon class="st1" points="53.5,55.1 53.5,60.1 102.2,68.9 102.2,55.1 "/>
<polygon class="st1" points="102.2,103.9 107.2,103.9 115.9,55.1 102.2,55.1 "/>
</svg>
